<svg xmlns="http://www.w3.org/2000/svg" width="36" height="33" fill="none" viewBox="0 0 36 33"><path fill="#000" d="M20.7458 0C12.322 0 5.49153 7.38833 5.49153 16.5C5.49153 16.61 5.50848 16.72 5.50848 16.8483L2.38983 13.475L0 16.06L7.18644 23.8333L14.3729 16.06L11.9831 13.475L8.8983 16.8117C8.8983 16.7017 8.88136 16.61 8.88136 16.5C8.88136 9.42333 14.2034 3.66667 20.7458 3.66667C27.2881 3.66667 32.6102 9.42333 32.6102 16.5C32.6102 23.5767 27.2881 29.3333 20.7458 29.3333C17.5254 29.3333 14.6102 27.94 12.4746 25.685L10.0678 28.27C12.8136 31.185 16.5932 33 20.7458 33C29.1695 33 36 25.6117 36 16.5C36 7.38833 29.1695 0 20.7458 0ZM24.1356 14.6667V12.8333C24.1356 10.8167 22.6102 9.16667 20.7458 9.16667C18.8814 9.16667 17.3559 10.8167 17.3559 12.8333V14.6667C16.4237 14.6667 15.661 15.4917 15.661 16.5V22C15.661 23.0083 16.4237 23.8333 17.3559 23.8333H24.1356C25.0678 23.8333 25.8305 23.0083 25.8305 22V16.5C25.8305 15.4917 25.0678 14.6667 24.1356 14.6667ZM22.4407 14.6667H19.0508V12.8333C19.0508 11.825 19.8136 11 20.7458 11C21.678 11 22.4407 11.825 22.4407 12.8333V14.6667Z"/></svg>