<svg width="40" height="40" viewBox="0 0 40 40" fill="none" xmlns="http://www.w3.org/2000/svg">
  <path
    d="M18.51 20.5601C19.742 18.3361 22.11 17.024 23.486 15.056C24.942 12.992 24.126 9.13605 19.998 9.13605C17.294 9.13605 15.966 11.184 15.406 12.88L11.262 11.136C12.398 7.72805 15.486 4.80005 19.982 4.80005C23.742 4.80005 26.318 6.51205 27.63 8.65605C28.75 10.496 29.406 13.936 27.678 16.496C25.758 19.328 23.918 20.192 22.926 22.0161C22.526 22.7521 22.366 23.232 22.366 25.6H17.742C17.726 24.352 17.534 22.32 18.51 20.5601ZM23.198 32C23.198 33.76 21.758 35.2 19.998 35.2C18.238 35.2 16.798 33.76 16.798 32C16.798 30.24 18.238 28.8 19.998 28.8C21.758 28.8 23.198 30.24 23.198 32Z"
    fill="white" />
</svg>